# xmcd
#
# Track frame offsets:
# 150
# 23605
# 40770
# 61362
# 82342
# 109497
# 132167
# 150642
# 169572
# 186229
# 206779
# 227772
# 250772
# 270544
# 290631
# 312766
# 334628
#
# Disc length: 4786 seconds
#
# Revision: 0
# Processed by: cddbd v1.5PL3 Copyright (c) Steve Scherf et al.
# Submitted via: Audion 3.0.2 (http://www.panic.com/audion/)
#
DISCID=f012b011
DTITLE=Michael Franks - Burchfield Nines '78 - Skin Dive '85
DYEAR=1900
DGENRE=
TTITLE0=When The Cookie Jar Is Empty 
TTITLE1=A Robinson
TTITLE2=Wrestle A Live Nude Girl
TTITLE3=Burchfield Nines
TTITLE4=Meet Me In Deerpark
TTITLE5=Dear Little Nightingale 
TTITLE6=In Search Of The Perfect Shampoo
TTITLE7=Vivaldi's Song  
TTITLE8=Read My Lips
TTITLE9=Let Me Count The Ways
TTITLE10=Your Secret's Safe With Me 
TTITLE11=Don't Be Shy
TTITLE12=When I Give My Love To You
TTITLE13=Queen Of The Underground
TTITLE14=Now I Know Why (They Call It Falling)
TTITLE15=Please Don't Say Goodnight
TTITLE16=When She Is Mine
EXTD=
EXTT0=
EXTT1=
EXTT2=
EXTT3=
EXTT4=
EXTT5=
EXTT6=
EXTT7=
EXTT8=
EXTT9=
EXTT10=
EXTT11=
EXTT12=
EXTT13=
EXTT14=
EXTT15=
EXTT16=
PLAYORDER=
